<?xml version="1.0" standalone="no"?>
<!DOCTYPE svg PUBLIC "-//W3C//DTD SVG 20010904//EN"
 "http://www.w3.org/TR/2001/REC-SVG-20010904/DTD/svg10.dtd">
<svg version="1.0" xmlns="http://www.w3.org/2000/svg"
 width="700.000000pt" height="700.000000pt" viewBox="0 0 700.000000 700.000000"
 preserveAspectRatio="xMidYMid meet">
<metadata>
Created by potrace 1.11, written by Peter Selinger 2001-2013
</metadata>
<g transform="translate(0.000000,700.000000) scale(0.100000,-0.100000)"
fill="#000000" stroke="none">
<path d="M1720 6402 c-12 -4 -15 -5622 -2 -5623 10 0 858 0 905 0 l37 1 0 534
0 535 56 53 c31 29 78 73 104 98 26 25 108 102 182 172 196 185 226 214 297
281 l63 61 22 -25 c11 -14 35 -43 53 -65 60 -75 444 -549 456 -564 7 -8 59
-73 117 -145 57 -71 137 -170 178 -220 40 -49 84 -103 97 -120 13 -16 116
-144 228 -282 112 -139 215 -267 228 -284 l25 -32 559 1 c308 0 566 1 573 1
17 1 15 14 -6 37 -9 10 -33 39 -52 64 -19 25 -42 54 -52 65 -9 11 -62 79 -118
150 -56 72 -115 146 -130 165 -23 28 -196 249 -365 465 -16 21 -40 50 -51 64
-12 14 -101 127 -198 251 -97 124 -187 239 -200 255 -14 17 -145 183 -292 370
-147 187 -289 368 -316 402 l-49 62 753 757 c414 416 792 795 841 843 48 47
87 89 87 92 0 4 -253 7 -563 7 l-564 0 -50 -46 c-27 -26 -94 -88 -149 -138
-54 -51 -113 -105 -130 -120 -70 -66 -261 -243 -289 -268 -61 -56 -251 -232
-285 -264 -19 -19 -74 -69 -121 -113 -95 -87 -111 -102 -220 -204 -41 -38
-126 -117 -189 -175 -62 -58 -130 -121 -151 -140 -21 -19 -81 -75 -135 -125
-54 -49 -129 -120 -168 -157 -39 -36 -72 -65 -74 -64 -1 2 -2 765 -2 1697 l0
1694 -465 0 c-255 0 -469 -1 -475 -3z"/>
</g>
</svg>
